<svg xmlns="http://www.w3.org/2000/svg" xmlns:xlink="http://www.w3.org/1999/xlink" width="0" height="0">
    <symbol id="phone" viewBox="0 0 24 24">
        <path
            d="M16.5562 12.9062L16.1007 13.359C16.1007 13.359 15.0181 14.4355 12.0631 11.4972C9.10812 8.55901 10.1907 7.48257 10.1907 7.48257L10.4775 7.19738C11.1841 6.49484 11.2507 5.36691 10.6342 4.54348L9.37326 2.85908C8.61028 1.83992 7.13596 1.70529 6.26145 2.57483L4.69185 4.13552C4.25823 4.56668 3.96765 5.12559 4.00289 5.74561C4.09304 7.33182 4.81071 10.7447 8.81536 14.7266C13.0621 18.9492 17.0468 19.117 18.6763 18.9651C19.1917 18.9171 19.6399 18.6546 20.0011 18.2954L21.4217 16.883C22.3806 15.9295 22.1102 14.2949 20.8833 13.628L18.9728 12.5894C18.1672 12.1515 17.1858 12.2801 16.5562 12.9062Z"
            fill="#0B828C" />
    </symbol>
    <symbol id="mail" viewBox="0 0 512 512">
        <path d="M452.29,74.535H59.71C26.728,74.535,0,101.263,0,134.236v243.527c0,32.974,26.728,59.702,59.71,59.702H452.29
		c32.973,0,59.71-26.728,59.71-59.702V134.236C512,101.263,485.264,74.535,452.29,74.535z M483.49,393.849l-11.366,13.46
		L312.957,277.407l-24.65,23.454c-18.268,16.776-46.345,16.776-64.614,0l-24.65-23.454L39.876,407.309l-11.366-13.46l149.44-136.517
		L27.531,115.968l8.893-11.783L256,270.56l219.575-166.375l8.886,11.783l-150.41,141.364L483.49,393.849z"
            fill="#0B828C" />
    </symbol>
    <symbol id="arrow" viewBox="0 0 32 32">
        <path d="M16 32a16 16 0 1 1 16-16 16 16 0 0 1-16 16zm0-30a14 14 0 1 0 14 14A14 14 0 0 0 16 2z" fill="#0B828C" />
        <path d="m18.29 24.71-8-8a1 1 0 0 1 0-1.41l8-8 1.41 1.41L12.41 16l7.29 7.29z" fill="#0B828C" />
    </symbol>
    <symbol id="down" viewBox="0 0 14 14">
        <path
            d="M6.99978 8.33333C6.92301 8.33377 6.84691 8.31906 6.77584 8.29003C6.70477 8.261 6.64012 8.21823 6.58562 8.16416L3.08562 4.66416C2.97577 4.55432 2.91406 4.40534 2.91406 4.25C2.91406 4.09465 2.97577 3.94567 3.08562 3.83583C3.19546 3.72599 3.34444 3.66428 3.49978 3.66428C3.65513 3.66428 3.80411 3.72599 3.91395 3.83583L6.99978 6.9275L10.0856 3.84166C10.1972 3.7461 10.3408 3.69616 10.4876 3.70183C10.6344 3.7075 10.7736 3.76836 10.8775 3.87225C10.9814 3.97614 11.0423 4.1154 11.0479 4.26222C11.0536 4.40903 11.0037 4.55257 10.9081 4.66416L7.40812 8.16416C7.29946 8.27193 7.15281 8.33268 6.99978 8.33333Z"
            fill="#ffffff" />
    </symbol>
</svg>